<?xml version="1.0" encoding="UTF-8" standalone="no"?>
<!-- Created with Inkscape (http://www.inkscape.org/) -->

<svg
   version="1.1"
   id="svg1"
   width="96.639999"
   height="106.56"
   viewBox="0 0 96.639999 106.56"
   xmlns="http://www.w3.org/2000/svg"
   xmlns:svg="http://www.w3.org/2000/svg">
  <defs
     id="defs1" />
  <g
     id="g1">
    <g
       id="g2"
       transform="translate(-0.23471348)">
      <path
         style="fill:#eed920"
         d="M 48.091371,85.676475 C 47.925741,85.458413 47.117425,84.115342 46.295113,82.691873 45.472801,81.268405 44.8,79.936405 44.8,79.731873 c 0,-0.260942 1.097768,-0.371875 3.68,-0.371875 2.524786,0 3.68,0.113646 3.68,0.362024 0,0.199114 -0.72922,1.636313 -1.620487,3.193777 -0.891268,1.557463 -1.738952,2.904967 -1.883742,2.994452 -0.14479,0.08948 -0.39877,-0.01571 -0.5644,-0.233776 z M 89.599999,80.19918 c 0,-0.06645 0.252,-0.318449 0.56,-0.56 0.507538,-0.398038 0.518857,-0.38672 0.120818,0.120818 -0.24155,0.308 -0.49355,0.56 -0.56,0.56 -0.06645,0 -0.120818,-0.05437 -0.120818,-0.120818 z M 19.375268,70.424703 c -0.100376,-0.162413 0.813276,-1.998413 2.030339,-4.08 1.217062,-2.081587 2.397141,-3.784704 2.622397,-3.784704 0.225255,0 1.385074,1.656 2.577374,3.679999 1.1923,2.024 2.173849,3.86 2.18122,4.08 0.01012,0.302153 -1.117007,0.4 -4.607713,0.4 -2.541613,0 -4.70324,-0.132883 -4.803617,-0.295295 z m 48.478133,-0.104705 c 0.0074,-0.22 0.98892,-2.056 2.181221,-4.08 1.1923,-2.023999 2.352118,-3.679999 2.577374,-3.679999 0.225255,0 1.405334,1.703117 2.622397,3.784704 1.217062,2.081587 2.130715,3.917587 2.030338,4.08 -0.100376,0.162412 -2.262004,0.295295 -4.803617,0.295295 -3.490706,0 -4.617836,-0.09785 -4.607713,-0.4 z M 46.4,67.997443 c -0.792,-0.820228 -2.088,-1.818789 -2.88,-2.219025 -0.792,-0.400236 -2.016,-0.811726 -2.72,-0.914423 -0.704,-0.102696 -1.918149,-0.06566 -2.698109,0.0823 -0.77996,0.147961 -1.572365,0.209827 -1.760899,0.137479 -0.188534,-0.07235 -0.796309,-0.813793 -1.35061,-1.647658 -0.554301,-0.833864 -1.343546,-2.118467 -1.753879,-2.854673 -0.410332,-0.736206 -0.654324,-1.43029 -0.542205,-1.542409 0.112119,-0.11212 1.181478,0.0981 2.376352,0.467163 1.194874,0.369059 3.47679,0.882564 5.070924,1.141122 1.748381,0.283576 4.929953,0.460987 8.018426,0.447123 2.816,-0.01264 6.848,-0.131876 8.96,-0.264966 2.112,-0.133091 4.261875,-0.124801 4.777501,0.01842 0.515625,0.143223 1.05342,0.443037 1.1951,0.666253 0.141679,0.223216 0.259803,0.913123 0.262499,1.533127 0.0032,0.726172 -0.403479,1.817606 -1.14281,3.067374 -0.631241,1.067052 -1.603241,2.215635 -2.16,2.552408 -0.873401,0.528303 -1.780629,0.626679 -6.61229,0.71701 -5.6,0.104695 -5.6,0.104695 -7.04,-1.386628 z M 61.28,46.67655 c -1.056,-0.340749 -3.216,-0.829792 -4.8,-1.086761 -1.729578,-0.280586 -4.925196,-0.458036 -8,-0.444233 -2.816,0.01264 -6.848,0.131875 -8.96,0.264966 -2.112,0.133091 -4.261876,0.1248 -4.777501,-0.01842 -0.515626,-0.143224 -1.053421,-0.443038 -1.1951,-0.666253 -0.14168,-0.223216 -0.259804,-0.913123 -0.262499,-1.533128 -0.0032,-0.726171 0.403478,-1.817605 1.14281,-3.067374 0.63124,-1.067051 1.60324,-2.215231 2.16,-2.551511 0.869862,-0.525391 1.794178,-0.627395 6.569463,-0.724983 5.557173,-0.113566 5.557173,-0.113566 7.2,1.486034 0.903555,0.87978 2.285037,1.92068 3.069962,2.313111 0.989019,0.49447 2.020505,0.717342 3.36,0.725991 1.063075,0.0069 2.245558,-0.08959 2.627739,-0.214343 0.505477,-0.164999 0.883421,-0.02687 1.386635,0.506767 0.380468,0.403474 1.255775,1.694713 1.945126,2.86942 0.68935,1.174708 1.253365,2.290708 1.253365,2.48 0,0.189293 -0.18,0.32979 -0.4,0.312216 -0.22,-0.01757 -1.264,-0.310747 -2.32,-0.651496 z m 9.344209,-5.796551 c -0.953218,-1.628 -1.897618,-3.274533 -2.098667,-3.658963 -0.201048,-0.384429 -0.365542,-0.852429 -0.365542,-1.04 0,-0.225143 1.52243,-0.341037 4.48,-0.341037 3.618304,0 4.48,0.08583 4.48,0.446251 0,0.245438 -0.946115,2.045438 -2.102477,4 -1.156362,1.954562 -2.227962,3.553749 -2.381333,3.553749 -0.153371,0 -1.058762,-1.332 -2.011981,-2.96 z M 23.261796,42.819867 C 23.009349,42.41294 22.064172,40.806463 21.161401,39.249919 20.25863,37.693376 19.52,36.289376 19.52,36.129919 c 0,-0.159456 1.935501,-0.28992 4.301114,-0.28992 2.365613,0 4.364403,0.108 4.441754,0.24 0.07735,0.132 -0.780079,1.824 -1.905403,3.76 -1.125323,1.936 -2.178934,3.564941 -2.341358,3.619868 -0.162424,0.05493 -0.501864,-0.233072 -0.754311,-0.64 z M 44.484114,26.479999 c 0.0023,-0.22 0.758263,-1.688879 1.68,-3.264177 0.921737,-1.575297 1.819886,-2.853441 1.995886,-2.84032 0.176,0.01312 1.073517,1.302001 1.994483,2.864177 0.920966,1.562176 1.676966,3.02032 1.68,3.24032 0.0041,0.297132 -0.940874,0.4 -3.674483,0.4 -2.732861,0 -3.678941,-0.10295 -3.675886,-0.4 z M 12.4,23.454165 c 0.396,-0.07627 1.044,-0.07627 1.44,0 0.396,0.07627 0.072,0.138678 -0.72,0.138678 -0.792,0 -1.116,-0.0624 -0.72,-0.138678 z M 54.039182,6.1599999 C 53.641143,5.6524621 53.652462,5.6411436 54.16,6.0391822 c 0.308,0.2415502 0.56,0.4935502 0.56,0.56 0,0.06645 -0.05437,0.1208176 -0.120818,0.1208176 -0.06645,0 -0.31845,-0.2519999 -0.56,-0.5599999 z"
         id="path4" />
      <path
         style="fill:#b00000"
         d="m 46.767927,97.111221 c -0.534431,-0.449694 -3.123959,-4.53434 -5.832491,-9.2 -2.679222,-4.615173 -5.201206,-8.739415 -5.604408,-9.164983 -0.733095,-0.773761 -0.733095,-0.773761 -12.885747,-0.8 -12.152653,-0.02624 -12.152653,-0.02624 -12.9789669,-0.80202 -0.6210837,-0.583101 -0.8263142,-1.093313 -0.8263142,-2.054252 0,-1.02403 0.5691919,-2.270731 2.8599811,-6.264219 1.57299,-2.742162 4.163973,-7.217748 5.75774,-9.945748 1.593766,-2.728 2.898775,-5.289737 2.900018,-5.692748 0.0012,-0.403012 -0.285883,-1.297557 -0.638059,-1.987878 C 19.167505,50.509051 16.992442,46.662788 14.686209,42.652121 12.379975,38.641454 10.148119,34.680786 9.7265284,33.850637 9.3049377,33.020488 8.9599999,31.967021 8.9599999,31.5096 c 0,-0.457421 0.1482688,-1.108718 0.3294862,-1.447326 0.1812174,-0.338608 0.7500669,-0.833141 1.2641089,-1.098963 0.781385,-0.404069 2.770618,-0.483312 12.132669,-0.483312 11.158819,0 11.200892,-0.0025 12.010196,-0.72 0.446682,-0.396 2.95692,-4.413325 5.578307,-8.927389 2.621387,-4.514064 5.03595,-8.572218 5.365695,-9.0181199 0.329746,-0.4459017 0.930313,-0.9645764 1.334595,-1.1526104 0.404281,-0.1880339 1.018396,-0.3418799 1.364699,-0.3418799 0.346303,0 1.122506,0.468 1.724894,1.04 0.602389,0.572 3.214047,4.7120002 5.803685,9.2000002 2.589638,4.487999 5.050469,8.519999 5.468515,8.959999 0.760082,0.8 0.760082,0.8 12.166733,0.713374 7.645271,-0.05806 11.757472,0.02915 12.470541,0.264489 0.58514,0.193114 1.280337,0.660136 1.544883,1.037828 0.264546,0.377693 0.479373,1.194672 0.477394,1.815511 -0.0028,0.878267 -1.279916,3.330496 -5.754194,11.048798 -3.35459,5.786797 -5.753015,10.264285 -5.756402,10.746311 -0.0032,0.462083 1.205906,2.930497 2.743162,5.6 1.511931,2.625529 3.651641,6.357689 4.754911,8.293688 1.103269,1.936 2.386234,4.271213 2.851033,5.189362 0.464799,0.918149 0.845088,2.117226 0.845088,2.664616 0,0.67335 -0.302539,1.297792 -0.935384,1.930638 -0.935385,0.935384 -0.935385,0.935384 -12.462156,0.935384 -11.499696,0 -11.528678,0.0017 -12.338993,0.72 -0.446722,0.396 -2.771995,4.104 -5.167272,8.24 -2.395278,4.136 -4.774061,8.181001 -5.286185,8.988891 -0.512124,0.80789 -1.297656,1.63589 -1.745629,1.84 -0.447972,0.20411 -1.08467,0.371109 -1.414885,0.371109 -0.330215,0 -1.032921,-0.36395 -1.561568,-0.808777 z m 4.395185,-12.871223 c 1.222305,-2.068 2.406452,-4.166312 2.631437,-4.662916 0.342442,-0.755864 0.333852,-0.950502 -0.05274,-1.1951 -0.253994,-0.160701 -2.558284,-0.294389 -5.120645,-0.297084 -3.436443,-0.0036 -4.815488,0.109645 -5.255866,0.431657 -0.574917,0.42039 -0.56375,0.494459 0.301529,2 0.494206,0.859894 1.685357,2.895443 2.647003,4.523443 0.961646,1.628 1.946101,2.96 2.187679,2.96 0.241578,0 1.4393,-1.692 2.661606,-3.76 z M 30.454608,71.43339 c 0.25932,-0.25932 -0.409186,-1.665251 -2.490059,-5.236832 -1.564502,-2.685288 -3.087259,-5.17804 -3.383905,-5.53945 -0.47903,-0.583613 -0.592446,-0.603422 -1.014013,-0.177109 -0.261062,0.264 -1.788055,2.781761 -3.39332,5.595024 -2.720616,4.767944 -2.879803,5.144538 -2.345986,5.549968 0.450416,0.342088 1.821591,0.405903 6.422734,0.298916 3.67505,-0.08545 5.981855,-0.267823 6.204549,-0.490517 z m 48.478655,0.140012 c 0.130806,-0.130806 0.08099,-0.653336 -0.110696,-1.161178 -0.191689,-0.507842 -1.547711,-2.950346 -3.013382,-5.427787 -1.65571,-2.798667 -2.858309,-4.504438 -3.175708,-4.504438 -0.307966,0 -1.283974,1.302665 -2.457506,3.28 -1.070659,1.803999 -2.479214,4.251544 -3.130122,5.438987 -0.880563,1.606399 -1.073716,2.199186 -0.754659,2.316042 0.235845,0.08638 2.22881,0.206864 4.42881,0.267742 2.2,0.06088 4.894472,0.09219 5.987717,0.06957 1.093244,-0.02261 2.09474,-0.148136 2.225546,-0.278942 z M 60.258062,69.928538 c 0.669935,-0.318233 1.558579,-1.02634 1.974764,-1.573572 0.416186,-0.547232 1.128057,-1.73588 1.581937,-2.64144 0.45388,-0.90556 0.825237,-2.175027 0.825237,-2.821037 0,-0.646011 -0.148269,-1.451608 -0.329487,-1.790216 -0.181217,-0.338607 -0.750066,-0.833141 -1.264108,-1.098962 -0.630404,-0.325995 -1.871559,-0.483312 -3.813084,-0.483312 -1.583154,0 -4.722305,0.158215 -6.975891,0.351589 -3.025754,0.259632 -5.143624,0.255652 -8.09743,-0.01522 -2.2,-0.201742 -5.164927,-0.639777 -6.588727,-0.973411 -1.4238,-0.333633 -3.3678,-0.902714 -4.32,-1.264623 C 32.299073,57.256429 31.268,56.960249 30.96,56.96016 c -0.308,-8.9e-5 -0.56,0.147434 -0.56,0.327827 0,0.180394 0.523543,1.368394 1.16343,2.64 0.639886,1.271606 1.72291,3.136564 2.40672,4.144349 0.68381,1.007786 1.511259,1.97575 1.838776,2.151032 0.403084,0.215725 1.171663,0.19784 2.378765,-0.05535 1.522997,-0.319452 2.044283,-0.291772 3.571514,0.189645 1.329178,0.418986 2.223576,0.999031 3.48408,2.259536 0.932715,0.932715 1.898541,1.785746 2.14628,1.895624 0.247739,0.109879 2.970435,0.153552 6.050435,0.09705 4.590546,-0.08421 5.819567,-0.207028 6.818062,-0.681335 z M 66.24,48.95201 c 0,-0.180393 -0.523544,-1.368393 -1.16343,-2.64 -0.639887,-1.271606 -1.722911,-3.136563 -2.40672,-4.144349 -0.68381,-1.007785 -1.511259,-1.97575 -1.838777,-2.151032 -0.403084,-0.215724 -1.171663,-0.19784 -2.378764,0.05535 -1.522998,0.319452 -2.044284,0.291772 -3.571515,-0.189645 -1.357628,-0.427955 -2.226816,-1.001785 -3.609585,-2.383015 -1.82135,-1.819323 -1.82135,-1.819323 -7.74628,-1.805776 -5.092177,0.01164 -6.096129,0.09668 -7.142992,0.605033 -0.669935,0.325317 -1.558578,1.039221 -1.974764,1.586453 -0.416185,0.547232 -1.128057,1.73588 -1.581937,2.64144 C 32.371356,41.432032 32,42.701498 32,43.347509 c 0,0.64601 0.148269,1.451607 0.329486,1.790215 0.181217,0.338608 0.750066,0.833141 1.264109,1.098963 0.630404,0.325994 1.871559,0.483312 3.813084,0.483312 1.583153,0 4.722304,-0.157795 6.975891,-0.350654 3.070194,-0.262745 5.140352,-0.254635 8.25743,0.03235 2.288,0.21065 5.456,0.712127 7.04,1.114392 1.584,0.402265 3.384,0.951963 4,1.22155 0.616,0.269586 1.444,0.501904 1.84,0.516261 0.396,0.01436 0.72,-0.121491 0.72,-0.301885 z m 6.965272,-3.272011 c 0.178001,-0.22 1.563633,-2.556445 3.079182,-5.192099 1.51555,-2.635655 2.755546,-5.050699 2.755546,-5.366765 0,-0.536407 -0.420476,-0.568889 -6.315845,-0.487901 -5.331706,0.07325 -6.330309,0.162053 -6.408667,0.569932 -0.05105,0.265743 0.940635,2.281742 2.203751,4.48 1.263115,2.198258 2.636821,4.536833 3.052681,5.196833 0.415859,0.66 0.88067,1.2 1.032911,1.2 0.152242,0 0.422441,-0.18 0.600441,-0.4 z M 27.504881,40.232383 c 1.416315,-2.424189 2.575119,-4.692189 2.575119,-5.04 0,-0.607587 -0.237666,-0.632384 -6.061115,-0.632384 -3.908566,0 -6.135259,0.119969 -6.269891,0.337807 -0.114827,0.185794 0.690725,1.949794 1.790114,3.92 1.09939,1.970206 2.492234,4.3588 3.09521,5.307986 1.074098,1.690813 1.108471,1.713514 1.695881,1.12 0.329759,-0.333186 1.758366,-2.58922 3.174682,-5.013409 z M 53.274704,27.723442 c 0.574917,-0.420389 0.56375,-0.494458 -0.301528,-2 C 52.478969,24.863549 51.287818,22.827999 50.326172,21.2 c -0.961645,-1.628 -1.946101,-2.96 -2.187679,-2.96 -0.241577,0 -1.4393,1.692 -2.661605,3.759999 -1.222306,2.068 -2.406452,4.166313 -2.631437,4.662917 -0.342442,0.755864 -0.333852,0.950502 0.05274,1.1951 0.253993,0.160701 2.558283,0.294388 5.120644,0.297083 3.436443,0.0036 4.815488,-0.109644 5.255866,-0.431657 z"
         id="path3" />
      <path
         style="fill:#2b182b"
         d="m 46.284821,101.87777 c -1.04769,-0.32179 -2.053249,-0.97572 -3.081493,-2.003968 -0.896197,-0.896197 -2.721638,-3.563139 -4.421715,-6.460059 -1.592471,-2.71356 -3.538599,-5.964466 -4.32473,-7.224236 -0.78613,-1.25977 -1.83379,-2.55577 -2.328133,-2.88 -0.813701,-0.533691 -1.902288,-0.604659 -11.49688,-0.749509 -10.598075,-0.16 -10.598075,-0.16 -12.4843139,-1.124902 C 6.7029319,80.696101 6.0340624,80.102274 5.2906586,78.898724 4.42906,77.50382 4.3213364,77.054943 4.3318947,74.903626 c 0.010643,-2.16869 0.1411818,-2.67608 1.2409958,-4.823628 0.6760055,-1.32 2.5831249,-4.737072 4.2380429,-7.593493 1.6549176,-2.856422 3.3707916,-5.91392 3.8130516,-6.794441 0.77785,-1.548663 0.788478,-1.653587 0.325449,-3.212776 C 13.68617,51.592782 11.572138,47.533211 9.2515853,43.458018 6.9310326,39.382824 4.7641088,35.285243 4.4361992,34.352282 4.1082896,33.41932 3.84,32.174043 3.84,31.584998 3.84,30.995954 4.0784909,29.814076 4.3699798,28.958603 4.6834304,28.038676 5.444008,26.859149 6.2315789,26.071578 7.0020134,25.301144 8.2283841,24.504234 9.141599,24.180614 10.456983,23.714475 12.266372,23.594772 20,23.462254 c 5.104,-0.08746 9.790858,-0.287948 10.415241,-0.445532 0.624383,-0.157583 1.516009,-0.684812 1.981391,-1.171619 0.465382,-0.486807 2.455043,-3.621103 4.421467,-6.965103 1.966425,-3.344 4.079195,-6.7466988 4.695044,-7.5615527 0.61585,-0.8148539 1.664598,-1.7877872 2.330552,-2.162074 0.665953,-0.3742868 1.973959,-0.825247 2.906679,-1.0021337 1.195038,-0.2266343 2.248649,-0.2128566 3.567714,0.046654 1.472721,0.2897401 2.192779,0.6584255 3.376886,1.7290398 0.827764,0.7484256 2.310761,2.7083647 3.29555,4.3554196 0.984788,1.647056 2.924232,4.915231 4.309875,7.262612 1.464556,2.481065 2.925521,4.557705 3.489476,4.96 0.930683,0.663899 1.386445,0.699876 11.210125,0.884909 6.489361,0.12223 10.676567,0.332035 11.431918,0.57281 0.655555,0.208964 1.796725,0.842171 2.535933,1.407125 0.739208,0.564955 1.683765,1.67519 2.099015,2.46719 0.651069,1.241776 0.738931,1.7924 0.638269,4 -0.09668,2.12027 -0.297676,2.917281 -1.170149,4.64 -0.579381,1.144 -2.629862,4.786786 -4.556626,8.095079 -1.926764,3.308293 -3.777736,6.81301 -4.113271,7.788259 -0.549174,1.596203 -0.564066,1.883267 -0.149206,2.876167 0.253471,0.606642 2.227259,4.226538 4.386194,8.044213 2.158936,3.817675 4.175468,7.664614 4.481184,8.548754 0.305715,0.88414 0.557384,2.255527 0.559264,3.047527 0.0019,0.792 -0.258912,2.016 -0.579537,2.72 -0.320626,0.704 -1.161863,1.801917 -1.869414,2.439815 -0.707552,0.637898 -1.993096,1.394523 -2.856765,1.681387 -1.234562,0.410056 -3.669057,0.573581 -11.386301,0.764821 -9.208137,0.228184 -9.871556,0.284181 -10.713251,0.90427 -0.493492,0.363563 -1.689257,1.966388 -2.657257,3.561834 -0.968,1.595447 -2.84,4.7519 -4.16,7.014342 -1.373844,2.354729 -3.098078,4.820531 -4.032682,5.767082 -1.216085,1.231631 -2.067832,1.782781 -3.33808,2.160001 -0.93797,0.27855 -1.931263,0.49642 -2.207319,0.48416 -0.276055,-0.0123 -1.20175,-0.23723 -2.057098,-0.49994 z m 3.459559,-4.328881 c 0.447973,-0.20411 1.233505,-1.03211 1.745629,-1.84 0.512124,-0.80789 2.890907,-4.852891 5.286185,-8.988891 2.395277,-4.136 4.72055,-7.844 5.167272,-8.24 0.810315,-0.718309 0.839297,-0.72 12.338993,-0.72 11.526771,0 11.526771,0 12.462156,-0.935384 0.632845,-0.632846 0.935384,-1.257288 0.935384,-1.930638 0,-0.54739 -0.380289,-1.746467 -0.845088,-2.664616 -0.464799,-0.918149 -1.747764,-3.253362 -2.851033,-5.189362 -1.10327,-1.935999 -3.24298,-5.668159 -4.754911,-8.293688 -1.537256,-2.669503 -2.746408,-5.137917 -2.743162,-5.6 0.0034,-0.482026 2.401812,-4.959514 5.756402,-10.746311 4.474278,-7.718302 5.751395,-10.170531 5.754194,-11.048798 0.002,-0.620839 -0.212848,-1.437818 -0.477394,-1.815511 -0.264546,-0.377692 -0.959743,-0.844714 -1.544883,-1.037828 -0.713069,-0.235334 -4.82527,-0.32255 -12.470541,-0.264489 -11.406651,0.08663 -11.406651,0.08663 -12.166733,-0.713374 -0.418046,-0.44 -2.878877,-4.472 -5.468515,-8.959999 -2.589638,-4.488 -5.201296,-8.6280002 -5.803685,-9.2000002 -0.602388,-0.572 -1.378591,-1.04 -1.724894,-1.04 -0.346303,0 -0.960418,0.153846 -1.364699,0.3418799 -0.404282,0.188034 -1.004849,0.7067087 -1.334595,1.1526104 -0.329745,0.4459019 -2.744308,4.5040559 -5.365695,9.0181199 -2.621387,4.514064 -5.131625,8.531389 -5.578307,8.927389 -0.809304,0.717478 -0.851377,0.72 -12.010196,0.72 -9.362051,0 -11.351284,0.07924 -12.132669,0.483312 -0.514042,0.265822 -1.0828915,0.760355 -1.2641089,1.098963 -0.1812174,0.338608 -0.3294862,0.989905 -0.3294862,1.447326 0,0.457421 0.3449378,1.510888 0.7665285,2.341037 0.4215906,0.830149 2.6534466,4.790817 4.9596806,8.801484 2.306233,4.010667 4.481296,7.85693 4.833471,8.547252 0.352176,0.690321 0.639303,1.584866 0.638059,1.987878 -0.0012,0.403011 -1.306252,2.964748 -2.900018,5.692748 -1.593767,2.728 -4.18475,7.203586 -5.75774,9.945748 -2.2907892,3.993488 -2.8599811,5.240189 -2.8599811,6.264219 0,0.960939 0.2052305,1.471151 0.8263142,2.054252 0.8263139,0.77578 0.8263139,0.77578 12.9789669,0.80202 12.152652,0.02624 12.152652,0.02624 12.885747,0.8 0.403202,0.425568 2.925186,4.54981 5.604408,9.164983 2.708532,4.66566 5.29806,8.750306 5.832491,9.2 0.528647,0.444827 1.231353,0.808777 1.561568,0.808777 0.330215,0 0.966913,-0.166999 1.414885,-0.371109 z M 46.313827,85.039998 c -0.961646,-1.628 -2.152797,-3.663549 -2.647003,-4.523443 -0.865279,-1.505541 -0.876446,-1.57961 -0.301529,-2 0.440378,-0.322012 1.819423,-0.435271 5.255866,-0.431657 2.562361,0.0027 4.866651,0.136383 5.120645,0.297084 0.386595,0.244598 0.395185,0.439236 0.05274,1.1951 -0.224985,0.496604 -1.409132,2.594916 -2.631437,4.662916 -1.222306,2.068 -2.420028,3.76 -2.661606,3.76 -0.241578,0 -1.226033,-1.332 -2.187679,-2.96 z M 50.87106,82.416192 C 51.579977,81.131951 52.16,79.918936 52.16,79.720603 c 0,-0.246569 -1.163747,-0.360605 -3.68,-0.360605 -2.594931,0 -3.68,0.110313 -3.68,0.374126 0,0.205769 0.453243,1.177769 1.007207,2.16 0.553963,0.982231 1.365322,2.353679 1.803019,3.047663 0.795813,1.261788 0.795813,1.261788 1.383854,0.535588 0.323423,-0.39941 1.168064,-1.776942 1.87698,-3.061183 z M 17.827325,71.624991 c -0.533817,-0.40543 -0.37463,-0.782024 2.345986,-5.549968 1.605265,-2.813263 3.132258,-5.331024 3.39332,-5.595024 0.421567,-0.426313 0.534983,-0.406504 1.014013,0.177109 0.296646,0.36141 1.819403,2.854162 3.383905,5.53945 2.080873,3.571581 2.749379,4.977512 2.490059,5.236832 -0.222694,0.222694 -2.529499,0.405064 -6.204549,0.490517 -4.601143,0.106987 -5.972318,0.04317 -6.422734,-0.298916 z m 10.970907,-1.304993 c -9.72e-4,-0.22 -0.972972,-2.045441 -2.16,-4.056536 -1.187027,-2.011094 -2.327723,-3.711591 -2.534878,-3.778881 -0.207155,-0.06729 -1.402119,1.616634 -2.655474,3.742055 -1.253356,2.125421 -2.191367,4.005918 -2.084469,4.178882 0.112781,0.182483 2.133983,0.31448 4.815474,0.31448 3.484501,0 4.62068,-0.09838 4.619347,-0.4 z M 70.72,71.78277 c -2.2,-0.06088 -4.192965,-0.181362 -4.42881,-0.267742 -0.319057,-0.116856 -0.125904,-0.709643 0.754659,-2.316042 0.650908,-1.187443 2.059463,-3.634988 3.130122,-5.438987 1.173532,-1.977335 2.14954,-3.28 2.457506,-3.28 0.317399,0 1.519998,1.705771 3.175708,4.504438 1.465671,2.477441 2.821693,4.919945 3.013382,5.427787 0.191689,0.507842 0.241502,1.030372 0.110696,1.161178 -0.130806,0.130806 -1.132302,0.25633 -2.225546,0.278942 C 75.614472,71.874956 72.92,71.843648 70.72,71.78277 Z m 6.561944,-1.385917 c 0.109843,-0.177731 -0.827209,-2.058547 -2.082339,-4.179592 -1.255278,-2.121296 -2.452478,-3.801079 -2.66083,-3.73339 -0.208326,0.06768 -1.34998,1.768497 -2.537008,3.779591 -1.187028,2.011095 -2.159028,3.836536 -2.16,4.056536 -0.0013,0.301616 1.134846,0.4 4.619347,0.4 2.765553,0 4.701308,-0.129756 4.82083,-0.323145 z m -29.892379,0.115968 c -0.247739,-0.109878 -1.213565,-0.962909 -2.14628,-1.895624 -1.260504,-1.260505 -2.154902,-1.84055 -3.48408,-2.259536 -1.527231,-0.481417 -2.048517,-0.509097 -3.571514,-0.189645 -1.207102,0.253192 -1.975681,0.271077 -2.378765,0.05535 -0.327517,-0.17528 -1.154966,-1.143244 -1.838776,-2.15103 -0.68381,-1.007785 -1.766834,-2.872743 -2.40672,-4.144349 -0.639887,-1.271606 -1.16343,-2.459606 -1.16343,-2.64 0,-0.180393 0.252,-0.327916 0.56,-0.327827 0.308,8.9e-5 1.339073,0.296269 2.291273,0.658178 0.9522,0.361909 2.8962,0.93099 4.32,1.264623 1.4238,0.333634 4.388727,0.771669 6.588727,0.973411 2.953806,0.270868 5.071676,0.274848 8.09743,0.01522 2.253586,-0.193374 5.392737,-0.351589 6.975891,-0.351589 1.941525,0 3.18268,0.157317 3.813084,0.483312 0.514042,0.265821 1.082891,0.760355 1.264108,1.098962 0.181218,0.338608 0.329487,1.144205 0.329487,1.790216 0,0.64601 -0.371357,1.915477 -0.825237,2.821037 -0.45388,0.90556 -1.165751,2.094208 -1.581937,2.64144 -0.416185,0.547232 -1.304829,1.255339 -1.974764,1.573572 -0.998495,0.474306 -2.227516,0.597123 -6.818062,0.681334 -3.08,0.0565 -5.802696,0.01283 -6.050435,-0.09705 z m 12.738796,-1.872823 c 0.672464,-0.395436 1.496409,-1.373692 2.156184,-2.56 0.642889,-1.155945 1.067392,-2.365698 1.066739,-3.039999 -5.96e-4,-0.616 -0.117004,-1.302631 -0.258683,-1.525847 -0.14168,-0.223216 -0.683426,-0.527972 -1.20388,-0.677237 -0.520455,-0.149264 -2.81433,-0.153401 -5.097501,-0.0092 -2.283171,0.144208 -6.16722,0.268116 -8.63122,0.27535 -2.464,0.0072 -5.901448,-0.201097 -7.638773,-0.462957 -1.737325,-0.261861 -4.163119,-0.775218 -5.390654,-1.140793 -1.227534,-0.365576 -2.323737,-0.572828 -2.436005,-0.46056 -0.112268,0.112269 0.131603,0.806474 0.541935,1.54268 0.410333,0.736206 1.199578,2.020809 1.753879,2.854673 0.554301,0.833865 1.163562,1.575881 1.353912,1.648926 0.19035,0.07304 1.030823,0.0049 1.867717,-0.151463 0.961414,-0.179612 2.071367,-0.161525 3.014808,0.04913 C 42.048068,65.166074 43.296,65.65338 44,66.065607 c 0.704,0.412228 1.836373,1.351528 2.516385,2.087334 1.236386,1.337829 1.236386,1.337829 6.88,1.232443 4.950621,-0.09244 5.777257,-0.183973 6.731976,-0.745386 z M 63.68,48.737634 c -0.616,-0.269587 -2.416,-0.819285 -4,-1.22155 -1.584,-0.402265 -4.752,-0.903742 -7.04,-1.114392 -3.117078,-0.286982 -5.187236,-0.295092 -8.25743,-0.03235 -2.253587,0.192859 -5.392738,0.350654 -6.975891,0.350654 -1.941525,0 -3.18268,-0.157318 -3.813084,-0.483312 -0.514043,-0.265819 -1.082892,-0.760352 -1.264109,-1.09896 C 32.148269,44.799116 32,43.993519 32,43.347509 c 0,-0.646011 0.371356,-1.915477 0.825236,-2.821037 0.45388,-0.90556 1.165752,-2.094208 1.581937,-2.64144 0.416186,-0.547232 1.304829,-1.261136 1.974764,-1.586453 1.046863,-0.508352 2.050815,-0.59339 7.142992,-0.605033 5.92493,-0.01355 5.92493,-0.01355 7.74628,1.805776 1.382769,1.38123 2.251957,1.95506 3.609585,2.383015 1.527231,0.481417 2.048517,0.509097 3.571515,0.189645 1.207101,-0.253193 1.97568,-0.271077 2.378764,-0.05535 0.327518,0.175282 1.154967,1.143247 1.838777,2.151032 0.683809,1.007786 1.766833,2.872743 2.40672,4.144349 0.639886,1.271607 1.16343,2.459607 1.16343,2.64 0,0.180394 -0.324,0.316242 -0.72,0.301885 -0.396,-0.01436 -1.224,-0.246675 -1.84,-0.516261 z M 64,47.01583 c 0,-0.189292 -0.564015,-1.305292 -1.253365,-2.48 -0.689351,-1.174707 -1.564658,-2.465946 -1.945126,-2.86942 -0.501281,-0.531591 -0.883099,-0.671941 -1.386635,-0.509703 -0.382181,0.123137 -1.508359,0.225253 -2.502619,0.226923 -1.311652,0.0022 -2.28438,-0.230161 -3.544593,-0.846725 -0.955267,-0.467369 -2.356387,-1.51076 -3.1136,-2.318647 -1.376751,-1.468887 -1.376751,-1.468887 -7.015406,-1.363573 -4.945725,0.09237 -5.772404,0.183963 -6.727017,0.745314 -0.672464,0.395436 -1.49641,1.373692 -2.156185,2.56 -0.642888,1.155946 -1.067392,2.365698 -1.066739,3.04 5.97e-4,0.616 0.117004,1.302631 0.258684,1.525847 0.141679,0.223215 0.683425,0.527972 1.20388,0.677236 0.520454,0.149265 2.81433,0.153401 5.097501,0.0092 2.283171,-0.144209 6.148739,-0.268965 8.590152,-0.277237 2.441412,-0.0083 5.897412,0.20323 7.68,0.470003 1.782587,0.266773 4.105068,0.757638 5.161068,1.090811 1.056,0.333172 2.1,0.618903 2.32,0.634957 0.22,0.01605 0.4,-0.125686 0.4,-0.314979 z m 7.57192,-2.135831 c -0.41586,-0.66 -1.789566,-2.998575 -3.052681,-5.196833 -1.263116,-2.198258 -2.254804,-4.214257 -2.203751,-4.48 0.07836,-0.407879 1.076961,-0.496687 6.408667,-0.569932 5.895369,-0.08099 6.315845,-0.04851 6.315845,0.487901 0,0.316066 -1.239996,2.73111 -2.755546,5.366765 -1.515549,2.635654 -2.901181,4.972099 -3.079182,5.192099 -0.178,0.22 -0.448199,0.4 -0.600441,0.4 -0.152241,0 -0.617052,-0.54 -1.032911,-1.2 z m 3.456279,-4.563984 c 1.15049,-1.938192 2.091801,-3.738192 2.091801,-4 0,-0.398687 -0.727778,-0.476016 -4.48,-0.476016 -2.914634,0 -4.48,0.117365 -4.48,0.335891 0,0.18474 0.233386,0.79674 0.518636,1.36 0.28525,0.56326 1.230915,2.212109 2.101479,3.664109 0.870563,1.452 1.711867,2.64 1.869563,2.64 0.157697,0 1.228031,-1.585793 2.378521,-3.523984 z m -52.393881,3.809777 c -0.602976,-0.949186 -1.99582,-3.33778 -3.09521,-5.307986 -1.099389,-1.970206 -1.904941,-3.734206 -1.790114,-3.92 0.134632,-0.217838 2.361325,-0.337807 6.269891,-0.337807 5.823449,0 6.061115,0.0248 6.061115,0.632384 0,0.347811 -1.158804,2.615811 -2.575119,5.04 -1.416316,2.424189 -2.844923,4.680223 -3.174682,5.013409 -0.58741,0.593514 -0.621783,0.570813 -1.695881,-1.12 z m 3.751131,-4.292279 c 1.114593,-1.932433 1.961339,-3.621514 1.881657,-3.753514 -0.07968,-0.132 -2.080379,-0.24 -4.445992,-0.24 -2.407511,0 -4.301114,0.129728 -4.301114,0.294663 0,0.162064 0.81148,1.710064 1.803289,3.439999 0.99181,1.729936 1.949422,3.330134 2.128028,3.555996 0.178605,0.225861 0.455881,0.366943 0.616168,0.313514 0.160287,-0.05343 1.203371,-1.678225 2.317964,-3.610658 z M 42.898194,27.858016 c -0.386595,-0.244598 -0.395185,-0.439236 -0.05274,-1.1951 0.224985,-0.496604 1.409131,-2.594917 2.631437,-4.662917 C 46.699193,19.932 47.896916,18.24 48.138493,18.24 c 0.241578,0 1.226034,1.332 2.187679,2.96 0.961646,1.627999 2.152797,3.663549 2.647004,4.523442 0.865278,1.505542 0.876445,1.579611 0.301528,2 -0.440378,0.322013 -1.819423,0.435272 -5.255866,0.431657 -2.562361,-0.0027 -4.866651,-0.136382 -5.120644,-0.297083 z M 51.84,26.473309 c 0,-0.22368 -0.66478,-1.55568 -1.477289,-2.96 -0.812508,-1.40432 -1.657947,-2.745606 -1.878753,-2.980634 -0.330942,-0.35226 -0.512587,-0.267942 -1.034055,0.48 -0.347925,0.499028 -1.158486,1.857163 -1.801247,3.018076 -0.642761,1.160914 -1.168656,2.276914 -1.168656,2.48 0,0.257592 1.112789,0.369248 3.68,0.369248 2.762955,0 3.68,-0.101346 3.68,-0.40669 z"
         id="path2" />
    </g>
  </g>
</svg>
